<svg width="16" height="16" viewBox="0 0 16 16" fill="none" xmlns="http://www.w3.org/2000/svg">
<path d="M4.66665 14.6666H2.66665C2.31302 14.6666 1.97389 14.5262 1.72384 14.2761C1.47379 14.0261 1.33331 13.6869 1.33331 13.3333V8.66665C1.33331 8.31302 1.47379 7.97389 1.72384 7.72384C1.97389 7.47379 2.31302 7.33331 2.66665 7.33331H4.66665M9.33331 5.99998V3.33331C9.33331 2.80288 9.1226 2.29417 8.74753 1.9191C8.37245 1.54403 7.86375 1.33331 7.33331 1.33331L4.66665 7.33331V14.6666H12.1866C12.5082 14.6703 12.8202 14.5576 13.0653 14.3493C13.3103 14.1411 13.4718 13.8513 13.52 13.5333L14.44 7.53331C14.469 7.34222 14.4561 7.1471 14.4022 6.96148C14.3483 6.77586 14.2547 6.60418 14.1279 6.45832C14.0011 6.31247 13.844 6.19593 13.6677 6.11679C13.4914 6.03765 13.2999 5.99779 13.1066 5.99998H9.33331Z" stroke="#0275B1" stroke-width="2" stroke-linecap="round" stroke-linejoin="round"/>
</svg>
